<svg xmlns="http://www.w3.org/2000/svg" width="223" height="58" fill="none" viewBox="0 0 223 58" class="b7415426"><path fill="#FFEDB2" d="M219 2l-1.7 1 1.7 1 1 1.7 1-1.7 1.7-1-1.7-1-1-1.7-1 1.7z"></path><path fill="#FFEDB2" d="M220 6l.2-.1 1-1.7 1.7-1a.3.3 0 0 0 0-.4l-1.7-1-1-1.7a.3.3 0 0 0-.4 0l-1 1.7-1.7 1a.3.3 0 0 0 0 .4l1.7 1 1 1.7.2.1zm2.2-3l-1.4.7v.1l-.8 1.4-.7-1.4h-.1l-1.4-.8 1.4-.7v-.1l.8-1.4.7 1.4h.1l1.4.8zM199 24l-1.7 1 1.7 1 1 1.7 1-1.7 1.7-1-1.7-1-1-1.7-1 1.7z"></path><path fill="#FFEDB2" d="M200 28l.2-.1 1-1.7 1.7-1a.3.3 0 0 0 0-.4l-1.7-1-1-1.7a.3.3 0 0 0-.4 0l-1 1.7-1.7 1a.3.3 0 0 0 0 .4l1.7 1 1 1.7.2.1zm2.2-3l-1.4.7v.1l-.8 1.4-.7-1.4h-.1l-1.4-.8 1.4-.7v-.1l.8-1.4.7 1.4h.1l1.4.8zM2 28L.3 29 2 30l1 1.7L4 30l1.7-1L4 28l-1-1.7L2 28z"></path><path fill="#FFEDB2" d="M3 32l.2-.1 1-1.7 1.7-1a.3.3 0 0 0 0-.4l-1.7-1-1-1.7a.3.3 0 0 0-.4 0l-1 1.7-1.7 1a.3.3 0 0 0 0 .4l1.7 1 1 1.7.2.1zm2.2-3l-1.4.7v.1L3 31.2l-.7-1.4h-.1L.8 29l1.4-.7v-.1l.8-1.4.7 1.4h.1l1.4.8z"></path><path fill="#FFCE32" d="M111.7 52.7l-2.3 1.3 2.3 1.3 1.3 2.3 1.3-2.3 2.3-1.3-2.3-1.3-1.3-2.3-1.3 2.3z"></path><path fill="#FFCE32" d="M113 58c.1 0 .3 0 .3-.2l1.3-2.2 2.2-1.3a.4.4 0 0 0 0-.6l-2.2-1.3-1.3-2.2a.4.4 0 0 0-.6 0l-1.3 2.2-2.2 1.3a.4.4 0 0 0 0 .6l2.2 1.3 1.3 2.2.3.2zm3-4l-1.9 1-.1.1-1 1.8-1-1.8-.1-.1-1.8-1 1.8-1 .1-.1 1-1.8 1 1.8.1.1 1.8 1z"></path></svg>